<?xml version='1.0' encoding='utf-8'?>
<svg width="495" height="195" xmlns="http://www.w3.org/2000/svg">
  <rect width="495" height="195" fill="#0d1117" rx="8" />
  <rect x="10" y="10" width="475" height="175" fill="#161b22" rx="6" />
  <text x="247" y="35" text-anchor="middle" font-family="Segoe UI, -apple-system, BlinkMacSystemFont, sans-serif" font-size="18" font-weight="700" fill="#ff6e96">Most Used Languages</text>
  <rect x="20" y="60" width="163.33965233395003" height="10" fill="#3776ab" rx="2" />
  <rect x="183.33965233395003" y="60" width="93.10150499820847" height="10" fill="#ed8b00" rx="2" />
  <rect x="276.44115733215847" y="60" width="83.06987210946741" height="10" fill="#f7df1e" rx="2" />
  <rect x="359.51102944162585" y="60" width="46.59603008459187" height="10" fill="#3178c6" rx="2" />
  <rect x="406.1070595262177" y="60" width="31.781268600426948" height="10" fill="#3178c6" rx="2" />
  <rect x="437.88832812664464" y="60" width="18.298940515320172" height="10" fill="#89e051" rx="2" />
  <rect x="456.1872686419648" y="60" width="10.144361799199146" height="10" fill="#1572b6" rx="2" />
  <rect x="466.33163044116395" y="60" width="6.4031509310632035" height="10" fill="#3776ab" rx="2" />
  <rect x="472.73478137222713" y="60" width="1.0346256921559736" height="10" fill="#012456" rx="2" />
  <circle cx="26.0" cy="96" r="5" fill="#3776ab" />
  <text x="38.0" y="100" font-family="Segoe UI, -apple-system, BlinkMacSystemFont, sans-serif" font-size="12" fill="#c9d1d9">Python 35.90%</text>
  <circle cx="177.66666666666666" cy="96" r="5" fill="#ed8b00" />
  <text x="189.66666666666666" y="100" font-family="Segoe UI, -apple-system, BlinkMacSystemFont, sans-serif" font-size="12" fill="#c9d1d9">Java 20.46%</text>
  <circle cx="329.3333333333333" cy="96" r="5" fill="#f7df1e" />
  <text x="341.3333333333333" y="100" font-family="Segoe UI, -apple-system, BlinkMacSystemFont, sans-serif" font-size="12" fill="#c9d1d9">JavaScript 18.26%</text>
  <circle cx="26.0" cy="121" r="5" fill="#3178c6" />
  <text x="38.0" y="125" font-family="Segoe UI, -apple-system, BlinkMacSystemFont, sans-serif" font-size="12" fill="#c9d1d9">TypeScript 10.24%</text>
  <circle cx="177.66666666666666" cy="121" r="5" fill="#3178c6" />
  <text x="189.66666666666666" y="125" font-family="Segoe UI, -apple-system, BlinkMacSystemFont, sans-serif" font-size="12" fill="#c9d1d9">PHP 6.98%</text>
  <circle cx="329.3333333333333" cy="121" r="5" fill="#89e051" />
  <text x="341.3333333333333" y="125" font-family="Segoe UI, -apple-system, BlinkMacSystemFont, sans-serif" font-size="12" fill="#c9d1d9">Shell 4.02%</text>
  <circle cx="26.0" cy="146" r="5" fill="#1572b6" />
  <text x="38.0" y="150" font-family="Segoe UI, -apple-system, BlinkMacSystemFont, sans-serif" font-size="12" fill="#c9d1d9">CSS 2.23%</text>
  <circle cx="177.66666666666666" cy="146" r="5" fill="#3776ab" />
  <text x="189.66666666666666" y="150" font-family="Segoe UI, -apple-system, BlinkMacSystemFont, sans-serif" font-size="12" fill="#c9d1d9">Bru 1.41%</text>
  <circle cx="329.3333333333333" cy="146" r="5" fill="#012456" />
  <text x="341.3333333333333" y="150" font-family="Segoe UI, -apple-system, BlinkMacSystemFont, sans-serif" font-size="12" fill="#c9d1d9">PowerShell 0.23%</text>
</svg>