<?xml version='1.0' encoding='utf-8'?>
<svg width="495" height="195" xmlns="http://www.w3.org/2000/svg">
  <rect width="495" height="195" fill="#0d1117" rx="8" />
  <rect x="10" y="10" width="475" height="175" fill="#161b22" rx="6" stroke="#30363d" stroke-width="1" />
  <text x="247" y="35" text-anchor="middle" font-family="Segoe UI, -apple-system, BlinkMacSystemFont, sans-serif" font-size="18" font-weight="700" fill="#ff6e96">Most Used Languages</text>
  <rect x="20" y="60" width="154.96241116219312" height="10" fill="#ed8b00" rx="2" />
  <rect x="174.96241116219312" y="60" width="125.66272119286958" height="10" fill="#f7df1e" rx="2" />
  <rect x="300.6251323550627" y="60" width="104.18574394206227" height="10" fill="#3776ab" rx="2" />
  <rect x="404.810876297125" y="60" width="52.8981997896836" height="10" fill="#f7df1e" rx="2" />
  <rect x="457.7090760868086" y="60" width="9.16482254214267" height="10" fill="#89e051" rx="2" />
  <rect x="466.8738986289512" y="60" width="5.736931213474765" height="10" fill="#1572b6" rx="2" />
  <rect x="472.61082984242597" y="60" width="1.3271653832648764" height="10" fill="#012456" rx="2" />
  <circle cx="26.0" cy="96" r="5" fill="#ed8b00" />
  <text x="38.0" y="100" font-family="Segoe UI, -apple-system, BlinkMacSystemFont, sans-serif" font-size="12" fill="#c9d1d9">Java 34.06%</text>
  <circle cx="177.66666666666666" cy="96" r="5" fill="#f7df1e" />
  <text x="189.66666666666666" y="100" font-family="Segoe UI, -apple-system, BlinkMacSystemFont, sans-serif" font-size="12" fill="#c9d1d9">JavaScript 27.62%</text>
  <circle cx="329.3333333333333" cy="96" r="5" fill="#3776ab" />
  <text x="341.3333333333333" y="100" font-family="Segoe UI, -apple-system, BlinkMacSystemFont, sans-serif" font-size="12" fill="#c9d1d9">Python 22.90%</text>
  <circle cx="26.0" cy="121" r="5" fill="#f7df1e" />
  <text x="38.0" y="125" font-family="Segoe UI, -apple-system, BlinkMacSystemFont, sans-serif" font-size="12" fill="#c9d1d9">PHP 11.63%</text>
  <circle cx="177.66666666666666" cy="121" r="5" fill="#89e051" />
  <text x="189.66666666666666" y="125" font-family="Segoe UI, -apple-system, BlinkMacSystemFont, sans-serif" font-size="12" fill="#c9d1d9">Shell 2.01%</text>
  <circle cx="329.3333333333333" cy="121" r="5" fill="#1572b6" />
  <text x="341.3333333333333" y="125" font-family="Segoe UI, -apple-system, BlinkMacSystemFont, sans-serif" font-size="12" fill="#c9d1d9">CSS 1.26%</text>
  <circle cx="26.0" cy="146" r="5" fill="#012456" />
  <text x="38.0" y="150" font-family="Segoe UI, -apple-system, BlinkMacSystemFont, sans-serif" font-size="12" fill="#c9d1d9">PowerShell 0.29%</text>
  <circle cx="177.66666666666666" cy="146" r="5" fill="#e34c26" />
  <text x="189.66666666666666" y="150" font-family="Segoe UI, -apple-system, BlinkMacSystemFont, sans-serif" font-size="12" fill="#c9d1d9">HTML 0.16%</text>
</svg>