<?xml version='1.0' encoding='utf-8'?>
<svg width="495" height="195" xmlns="http://www.w3.org/2000/svg">
  <rect width="495" height="195" fill="#0d1117" rx="8" />
  <rect x="10" y="10" width="475" height="175" fill="#161b22" rx="6" />
  <text x="247" y="35" text-anchor="middle" font-family="Segoe UI, -apple-system, BlinkMacSystemFont, sans-serif" font-size="18" font-weight="700" fill="#ff6e96">Most Used Languages</text>
  <rect x="20" y="60" width="134.82747242053554" height="10" fill="#3776ab" rx="2" />
  <rect x="154.82747242053554" y="60" width="129.9467614553317" height="10" fill="#ed8b00" rx="2" />
  <rect x="284.77423387586725" y="60" width="116.96815875095287" height="10" fill="#f7df1e" rx="2" />
  <rect x="401.7423926268201" y="60" width="44.35882029669632" height="10" fill="#f7df1e" rx="2" />
  <rect x="446.1012129235164" y="60" width="11.577447293479374" height="10" fill="#89e051" rx="2" />
  <rect x="457.6786602169958" y="60" width="9.134962763642926" height="10" fill="#1572b6" rx="2" />
  <rect x="466.81362298063874" y="60" width="5.9642402236349845" height="10" fill="#00add8" rx="2" />
  <rect x="472.77786320427373" y="60" width="1.153493558609724" height="10" fill="#012456" rx="2" />
  <circle cx="26.0" cy="96" r="5" fill="#3776ab" />
  <text x="38.0" y="100" font-family="Segoe UI, -apple-system, BlinkMacSystemFont, sans-serif" font-size="12" fill="#c9d1d9">Python 29.63%</text>
  <circle cx="177.66666666666666" cy="96" r="5" fill="#ed8b00" />
  <text x="189.66666666666666" y="100" font-family="Segoe UI, -apple-system, BlinkMacSystemFont, sans-serif" font-size="12" fill="#c9d1d9">Java 28.56%</text>
  <circle cx="329.3333333333333" cy="96" r="5" fill="#f7df1e" />
  <text x="341.3333333333333" y="100" font-family="Segoe UI, -apple-system, BlinkMacSystemFont, sans-serif" font-size="12" fill="#c9d1d9">JavaScript 25.71%</text>
  <circle cx="26.0" cy="121" r="5" fill="#f7df1e" />
  <text x="38.0" y="125" font-family="Segoe UI, -apple-system, BlinkMacSystemFont, sans-serif" font-size="12" fill="#c9d1d9">PHP 9.75%</text>
  <circle cx="177.66666666666666" cy="121" r="5" fill="#89e051" />
  <text x="189.66666666666666" y="125" font-family="Segoe UI, -apple-system, BlinkMacSystemFont, sans-serif" font-size="12" fill="#c9d1d9">Shell 2.54%</text>
  <circle cx="329.3333333333333" cy="121" r="5" fill="#1572b6" />
  <text x="341.3333333333333" y="125" font-family="Segoe UI, -apple-system, BlinkMacSystemFont, sans-serif" font-size="12" fill="#c9d1d9">CSS 2.01%</text>
  <circle cx="26.0" cy="146" r="5" fill="#00add8" />
  <text x="38.0" y="150" font-family="Segoe UI, -apple-system, BlinkMacSystemFont, sans-serif" font-size="12" fill="#c9d1d9">Bru 1.31%</text>
  <circle cx="177.66666666666666" cy="146" r="5" fill="#012456" />
  <text x="189.66666666666666" y="150" font-family="Segoe UI, -apple-system, BlinkMacSystemFont, sans-serif" font-size="12" fill="#c9d1d9">PowerShell 0.25%</text>
  <circle cx="329.3333333333333" cy="146" r="5" fill="#e34c26" />
  <text x="341.3333333333333" y="150" font-family="Segoe UI, -apple-system, BlinkMacSystemFont, sans-serif" font-size="12" fill="#c9d1d9">HTML 0.13%</text>
</svg>