<?xml version='1.0' encoding='utf-8'?>
<svg width="495" height="195" xmlns="http://www.w3.org/2000/svg">
  <rect width="495" height="195" fill="#0d1117" rx="8" />
  <rect x="10" y="10" width="475" height="175" fill="#161b22" rx="6" />
  <text x="247" y="35" text-anchor="middle" font-family="Segoe UI, -apple-system, BlinkMacSystemFont, sans-serif" font-size="18" font-weight="700" fill="#ff6e96">Most Used Languages</text>
  <rect x="20" y="60" width="158.8401336990456" height="10" fill="#3776ab" rx="2" />
  <rect x="178.8401336990456" y="60" width="90.51038024004757" height="10" fill="#ed8b00" rx="2" />
  <rect x="269.35051393909316" y="60" width="81.87852198876271" height="10" fill="#f7df1e" rx="2" />
  <rect x="351.2290359278559" y="60" width="55.02444932901667" height="10" fill="#3178c6" rx="2" />
  <rect x="406.2534852568725" y="60" width="30.896758388503812" height="10" fill="#3178c6" rx="2" />
  <rect x="437.15024364537635" y="60" width="18.40628960187957" height="10" fill="#89e051" rx="2" />
  <rect x="455.5565332472559" y="60" width="10.312985115986391" height="10" fill="#1572b6" rx="2" />
  <rect x="465.8695183632423" y="60" width="6.2249436839511585" height="10" fill="#3776ab" rx="2" />
  <rect x="472.0944620471935" y="60" width="1.0058308381262102" height="10" fill="#012456" rx="2" />
  <circle cx="26.0" cy="96" r="5" fill="#3776ab" />
  <text x="38.0" y="100" font-family="Segoe UI, -apple-system, BlinkMacSystemFont, sans-serif" font-size="12" fill="#c9d1d9">Python 34.91%</text>
  <circle cx="177.66666666666666" cy="96" r="5" fill="#ed8b00" />
  <text x="189.66666666666666" y="100" font-family="Segoe UI, -apple-system, BlinkMacSystemFont, sans-serif" font-size="12" fill="#c9d1d9">Java 19.89%</text>
  <circle cx="329.3333333333333" cy="96" r="5" fill="#f7df1e" />
  <text x="341.3333333333333" y="100" font-family="Segoe UI, -apple-system, BlinkMacSystemFont, sans-serif" font-size="12" fill="#c9d1d9">JavaScript 18.00%</text>
  <circle cx="26.0" cy="121" r="5" fill="#3178c6" />
  <text x="38.0" y="125" font-family="Segoe UI, -apple-system, BlinkMacSystemFont, sans-serif" font-size="12" fill="#c9d1d9">TypeScript 12.09%</text>
  <circle cx="177.66666666666666" cy="121" r="5" fill="#3178c6" />
  <text x="189.66666666666666" y="125" font-family="Segoe UI, -apple-system, BlinkMacSystemFont, sans-serif" font-size="12" fill="#c9d1d9">PHP 6.79%</text>
  <circle cx="329.3333333333333" cy="121" r="5" fill="#89e051" />
  <text x="341.3333333333333" y="125" font-family="Segoe UI, -apple-system, BlinkMacSystemFont, sans-serif" font-size="12" fill="#c9d1d9">Shell 4.05%</text>
  <circle cx="26.0" cy="146" r="5" fill="#1572b6" />
  <text x="38.0" y="150" font-family="Segoe UI, -apple-system, BlinkMacSystemFont, sans-serif" font-size="12" fill="#c9d1d9">CSS 2.27%</text>
  <circle cx="177.66666666666666" cy="146" r="5" fill="#3776ab" />
  <text x="189.66666666666666" y="150" font-family="Segoe UI, -apple-system, BlinkMacSystemFont, sans-serif" font-size="12" fill="#c9d1d9">Bru 1.37%</text>
  <circle cx="329.3333333333333" cy="146" r="5" fill="#012456" />
  <text x="341.3333333333333" y="150" font-family="Segoe UI, -apple-system, BlinkMacSystemFont, sans-serif" font-size="12" fill="#c9d1d9">PowerShell 0.22%</text>
  <circle cx="26.0" cy="171" r="5" fill="#e34c26" />
  <text x="38.0" y="175" font-family="Segoe UI, -apple-system, BlinkMacSystemFont, sans-serif" font-size="12" fill="#c9d1d9">HTML 0.19%</text>
</svg>