<?xml version='1.0' encoding='utf-8'?>
<svg width="495" height="195" xmlns="http://www.w3.org/2000/svg">
  <rect width="495" height="195" fill="#0d1117" rx="8" />
  <rect x="10" y="10" width="475" height="175" fill="#161b22" rx="6" />
  <text x="247" y="35" text-anchor="middle" font-family="Segoe UI, -apple-system, BlinkMacSystemFont, sans-serif" font-size="18" font-weight="700" fill="#ff6e96">Most Used Languages</text>
  <rect x="20" y="60" width="169.56100678541938" height="10" fill="#3776ab" rx="2" />
  <rect x="189.56100678541938" y="60" width="103.18882718604839" height="10" fill="#ed8b00" rx="2" />
  <rect x="292.74983397146775" y="60" width="92.07719124432704" height="10" fill="#f7df1e" rx="2" />
  <rect x="384.8270252157948" y="60" width="35.22469194698784" height="10" fill="#f7df1e" rx="2" />
  <rect x="420.0517171627826" y="60" width="18.542723225603293" height="10" fill="#89e051" rx="2" />
  <rect x="438.5944403883859" y="60" width="16.78890547563066" height="10" fill="#3178c6" rx="2" />
  <rect x="455.3833458640166" y="60" width="10.618929657311794" height="10" fill="#1572b6" rx="2" />
  <rect x="466.0022755213284" y="60" width="7.060107464202968" height="10" fill="#3776ab" rx="2" />
  <rect x="473.06238298553137" y="60" width="1.146724875738398" height="10" fill="#012456" rx="2" />
  <circle cx="26.0" cy="96" r="5" fill="#3776ab" />
  <text x="38.0" y="100" font-family="Segoe UI, -apple-system, BlinkMacSystemFont, sans-serif" font-size="12" fill="#c9d1d9">Python 37.27%</text>
  <circle cx="177.66666666666666" cy="96" r="5" fill="#ed8b00" />
  <text x="189.66666666666666" y="100" font-family="Segoe UI, -apple-system, BlinkMacSystemFont, sans-serif" font-size="12" fill="#c9d1d9">Java 22.68%</text>
  <circle cx="329.3333333333333" cy="96" r="5" fill="#f7df1e" />
  <text x="341.3333333333333" y="100" font-family="Segoe UI, -apple-system, BlinkMacSystemFont, sans-serif" font-size="12" fill="#c9d1d9">JavaScript 20.24%</text>
  <circle cx="26.0" cy="121" r="5" fill="#f7df1e" />
  <text x="38.0" y="125" font-family="Segoe UI, -apple-system, BlinkMacSystemFont, sans-serif" font-size="12" fill="#c9d1d9">PHP 7.74%</text>
  <circle cx="177.66666666666666" cy="121" r="5" fill="#89e051" />
  <text x="189.66666666666666" y="125" font-family="Segoe UI, -apple-system, BlinkMacSystemFont, sans-serif" font-size="12" fill="#c9d1d9">Shell 4.08%</text>
  <circle cx="329.3333333333333" cy="121" r="5" fill="#3178c6" />
  <text x="341.3333333333333" y="125" font-family="Segoe UI, -apple-system, BlinkMacSystemFont, sans-serif" font-size="12" fill="#c9d1d9">TypeScript 3.69%</text>
  <circle cx="26.0" cy="146" r="5" fill="#1572b6" />
  <text x="38.0" y="150" font-family="Segoe UI, -apple-system, BlinkMacSystemFont, sans-serif" font-size="12" fill="#c9d1d9">CSS 2.33%</text>
  <circle cx="177.66666666666666" cy="146" r="5" fill="#3776ab" />
  <text x="189.66666666666666" y="150" font-family="Segoe UI, -apple-system, BlinkMacSystemFont, sans-serif" font-size="12" fill="#c9d1d9">Bru 1.55%</text>
  <circle cx="329.3333333333333" cy="146" r="5" fill="#012456" />
  <text x="341.3333333333333" y="150" font-family="Segoe UI, -apple-system, BlinkMacSystemFont, sans-serif" font-size="12" fill="#c9d1d9">PowerShell 0.25%</text>
  <circle cx="26.0" cy="171" r="5" fill="#e34c26" />
  <text x="38.0" y="175" font-family="Segoe UI, -apple-system, BlinkMacSystemFont, sans-serif" font-size="12" fill="#c9d1d9">HTML 0.10%</text>
</svg>