<?xml version='1.0' encoding='utf-8'?>
<svg width="495" height="195" xmlns="http://www.w3.org/2000/svg">
  <rect width="495" height="195" fill="#0d1117" rx="8" />
  <rect x="10" y="10" width="475" height="175" fill="#161b22" rx="6" />
  <text x="247" y="35" text-anchor="middle" font-family="Segoe UI, -apple-system, BlinkMacSystemFont, sans-serif" font-size="18" font-weight="700" fill="#ff6e96">Most Used Languages</text>
  <rect x="20" y="60" width="211.72732437362237" height="10" fill="#3776ab" rx="2" />
  <rect x="231.72732437362237" y="60" width="137.00377266413562" height="10" fill="#3178c6" rx="2" />
  <rect x="368.731097037758" y="60" width="36.16895316377274" height="10" fill="#ed8b00" rx="2" />
  <rect x="404.90005020153075" y="60" width="25.941893259260556" height="10" fill="#89e051" rx="2" />
  <rect x="430.8419434607913" y="60" width="20.120943910052244" height="10" fill="#f7df1e" rx="2" />
  <rect x="450.96288737084353" y="60" width="12.548751847084645" height="10" fill="#1572b6" rx="2" />
  <rect x="463.5116392179282" y="60" width="7.138947516631114" height="10" fill="#00add8" rx="2" />
  <rect x="470.6505867345593" y="60" width="1.1508860094173194" height="10" fill="#012456" rx="2" />
  <rect x="471.8014727439766" y="60" width="1.1006723512416587" height="10" fill="#384d54" rx="2" />
  <circle cx="26.0" cy="96" r="5" fill="#3776ab" />
  <text x="38.0" y="100" font-family="Segoe UI, -apple-system, BlinkMacSystemFont, sans-serif" font-size="12" fill="#c9d1d9">Python 46.53%</text>
  <circle cx="177.66666666666666" cy="96" r="5" fill="#3178c6" />
  <text x="189.66666666666666" y="100" font-family="Segoe UI, -apple-system, BlinkMacSystemFont, sans-serif" font-size="12" fill="#c9d1d9">TypeScript 30.11%</text>
  <circle cx="329.3333333333333" cy="96" r="5" fill="#ed8b00" />
  <text x="341.3333333333333" y="100" font-family="Segoe UI, -apple-system, BlinkMacSystemFont, sans-serif" font-size="12" fill="#c9d1d9">Java 7.95%</text>
  <circle cx="26.0" cy="121" r="5" fill="#89e051" />
  <text x="38.0" y="125" font-family="Segoe UI, -apple-system, BlinkMacSystemFont, sans-serif" font-size="12" fill="#c9d1d9">Shell 5.70%</text>
  <circle cx="177.66666666666666" cy="121" r="5" fill="#f7df1e" />
  <text x="189.66666666666666" y="125" font-family="Segoe UI, -apple-system, BlinkMacSystemFont, sans-serif" font-size="12" fill="#c9d1d9">JavaScript 4.42%</text>
  <circle cx="329.3333333333333" cy="121" r="5" fill="#1572b6" />
  <text x="341.3333333333333" y="125" font-family="Segoe UI, -apple-system, BlinkMacSystemFont, sans-serif" font-size="12" fill="#c9d1d9">CSS 2.76%</text>
  <circle cx="26.0" cy="146" r="5" fill="#00add8" />
  <text x="38.0" y="150" font-family="Segoe UI, -apple-system, BlinkMacSystemFont, sans-serif" font-size="12" fill="#c9d1d9">Bru 1.57%</text>
  <circle cx="177.66666666666666" cy="146" r="5" fill="#012456" />
  <text x="189.66666666666666" y="150" font-family="Segoe UI, -apple-system, BlinkMacSystemFont, sans-serif" font-size="12" fill="#c9d1d9">PowerShell 0.25%</text>
  <circle cx="329.3333333333333" cy="146" r="5" fill="#384d54" />
  <text x="341.3333333333333" y="150" font-family="Segoe UI, -apple-system, BlinkMacSystemFont, sans-serif" font-size="12" fill="#c9d1d9">Dockerfile 0.24%</text>
  <circle cx="26.0" cy="171" r="5" fill="#012456" />
  <text x="38.0" y="175" font-family="Segoe UI, -apple-system, BlinkMacSystemFont, sans-serif" font-size="12" fill="#c9d1d9">Jinja 0.19%</text>
</svg>